<svg width="121" height="26" viewBox="0 0 121 26" fill="none" xmlns="http://www.w3.org/2000/svg">
<path d="M16.0136 20.7239H7.81939L6.38839 25.4018H0L9.09706 0.361164H14.7188L23.884 25.4018H17.4616L16.0136 20.7239ZM9.25038 16.0632H14.5826L11.908 7.37806L9.25038 16.0632Z" fill="#656980"/>
<path d="M45.4001 16.9231C45.3206 18.6659 44.855 20.208 44.0032 21.5494C43.1514 22.8794 41.9532 23.9113 40.4087 24.6451C38.8755 25.3789 37.1208 25.7458 35.1446 25.7458C31.8851 25.7458 29.3184 24.6738 27.4445 22.5297C25.5706 20.3857 24.6336 17.3588 24.6336 13.449V12.2108C24.6336 9.75715 25.0538 7.6131 25.8943 5.77862C26.746 3.93267 27.9669 2.51095 29.5569 1.51345C31.1469 0.504483 32.9868 0 35.0765 0C38.0861 0 40.5052 0.802586 42.3337 2.40776C44.1622 4.00146 45.2014 6.20284 45.4512 9.01189H39.4887C39.4433 7.48698 39.0629 6.39202 38.3474 5.72702C37.6319 5.06202 36.5416 4.72952 35.0765 4.72952C33.5887 4.72952 32.4984 5.29133 31.8056 6.41495C31.1129 7.53857 30.7494 9.33293 30.7154 11.798V13.5694C30.7154 16.2409 31.0447 18.1499 31.7034 19.2965C32.3735 20.443 33.5206 21.0163 35.1446 21.0163C36.5189 21.0163 37.5694 20.6895 38.2962 20.036C39.0231 19.3824 39.4092 18.3448 39.4547 16.9231H45.4001Z" fill="#656980"/>
<path d="M67.1888 5.02189H59.7442V25.4018H53.7647V5.02189H46.4563V0.361164H67.1888V5.02189Z" fill="#656980"/>
<path d="M76.0985 25.4018H70.136V0.361164H76.0985V25.4018Z" fill="#656980"/>
<path d="M89.8803 18.5913L94.8207 0.361164H101.499L93.1512 25.4018H86.6095L78.3301 0.361164H84.957L89.8803 18.5913Z" fill="#656980"/>
<path d="M118.705 14.7905H109.301V20.7583H120.408V25.4018H103.322V0.361164H120.442V5.02189H109.301V10.3018H118.705V14.7905Z" fill="#656980"/>
</svg>
